# xmcd
#
# Track frame offsets:
#	150
#	4299
#	30373
#	53101
#	84527
#	109040
#	134377
#	176657
#	180528
#	209092
#
# Disc length: 3299 seconds
#
# Revision: 1
# Processed by: cddbd v1.5.1PL2 Copyright (c) Steve Scherf et al.
# Submitted via: EasyCDDAExtractor 8.0.2.1
#
DISCID=830ce10a
DTITLE=Tony Martin - Kiek Reid 11-11-05 Disc 1
DYEAR=2005
DGENRE=Hard Rock
TTITLE0=Intro
TTITLE1=The Lawmaker
TTITLE2=I Witness
TTITLE3=Eternal Idol
TTITLE4=New Song
TTITLE5=The Hand That Rocks The Cradle
TTITLE6=The Battle Of Tyr - Odin's Court - Valhalla
TTITLE7=Band Introduction
TTITLE8=Children Of The Sea
TTITLE9=When Death Calls
EXTD=
EXTT0=
EXTT1=
EXTT2=
EXTT3=
EXTT4=
EXTT5=
EXTT6=
EXTT7=
EXTT8=
EXTT9=
PLAYORDER=
